<?xml version="1.0" encoding="utf-8"?>
<!-- Generator: Adobe Illustrator 25.2.1, SVG Export Plug-In . SVG Version: 6.00 Build 0)  -->
<svg version="1.1" id="Layer_1" xmlns="http://www.w3.org/2000/svg" xmlns:xlink="http://www.w3.org/1999/xlink" x="0px" y="0px"
	 viewBox="0 0 62.39 61.02" style="enable-background:new 0 0 62.39 61.02;" xml:space="preserve">
<style type="text/css">
	.st0{fill:#808285;}
	.st1{fill:none;stroke:#000000;stroke-width:90.5;stroke-miterlimit:10;}
	.st2{fill:none;stroke:#ED1C24;stroke-width:90.5;stroke-miterlimit:10;}
	.st3{fill:none;stroke:#000000;stroke-width:90.5;stroke-linecap:square;stroke-miterlimit:10;}
	.st4{fill:#ED1C24;}
</style>
<g>
	
		<rect x="27.81" y="-8.09" transform="matrix(0.7071 -0.7071 0.7071 0.7071 -12.3801 30.954)" class="st4" width="6.74" height="77.02"/>
	<circle cx="21.18" cy="5.96" r="5.96"/>
	<circle cx="5.96" cy="19.36" r="5.96"/>
	<circle cx="56.43" cy="19.36" r="5.96"/>
	<circle cx="41.17" cy="5.96" r="5.96"/>
	<path d="M42.07,61.02c-4.25,0-6.4-1.61-7.98-2.78c-1.1-0.82-1.6-1.19-2.92-1.19c-1.32,0-1.83,0.37-2.92,1.19
		c-1.57,1.17-3.72,2.78-7.98,2.78c-7.87,0-14.27-6.4-14.27-14.27c0-6.73,4.14-14.08,12.32-21.87c3.48-3.31,8.04-5.13,12.85-5.13
		c4.81,0,9.37,1.82,12.85,5.13c8.17,7.78,12.32,15.14,12.32,21.87C56.34,54.62,49.94,61.02,42.07,61.02z M31.17,50.31
		c3.56,0,5.52,1.46,6.95,2.53c1.2,0.9,1.93,1.44,3.95,1.44c4.15,0,7.53-3.38,7.53-7.53c0-2.53-1.02-5.4-3.02-8.53
		c-1.72-2.7-4.15-5.54-7.21-8.46c-2.22-2.11-5.13-3.28-8.2-3.28c-3.07,0-5.98,1.16-8.2,3.28c-3.06,2.91-5.49,5.76-7.21,8.46
		c-2,3.13-3.02,6-3.02,8.53c0,4.15,3.38,7.53,7.53,7.53c2.02,0,2.74-0.54,3.95-1.44C25.65,51.77,27.61,50.31,31.17,50.31z"/>
</g>
</svg>
