<?xml version="1.0" encoding="utf-8"?>
<!-- Generator: Adobe Illustrator 25.2.1, SVG Export Plug-In . SVG Version: 6.00 Build 0)  -->
<svg version="1.1" id="Layer_1" xmlns="http://www.w3.org/2000/svg" xmlns:xlink="http://www.w3.org/1999/xlink" x="0px" y="0px"
	 viewBox="0 0 44.71 61.2" style="enable-background:new 0 0 44.71 61.2;" xml:space="preserve">
<style type="text/css">
	.st0{fill:#808285;}
	.st1{fill:none;stroke:#000000;stroke-width:90.5;stroke-miterlimit:10;}
	.st2{fill:none;stroke:#ED1C24;stroke-width:90.5;stroke-miterlimit:10;}
	.st3{fill:none;stroke:#000000;stroke-width:90.5;stroke-linecap:square;stroke-miterlimit:10;}
	.st4{fill:#ED1C24;}
</style>
<g>
	<path d="M36.87,61.2H7.84C3.52,61.2,0,57.68,0,53.36V7.84C0,3.52,3.52,0,7.84,0h29.03c4.32,0,7.84,3.52,7.84,7.84v45.52
		C44.71,57.68,41.19,61.2,36.87,61.2z M7.84,6.74c-0.61,0-1.1,0.49-1.1,1.1v45.52c0,0.61,0.49,1.1,1.1,1.1h29.03
		c0.61,0,1.1-0.49,1.1-1.1V7.84c0-0.61-0.49-1.1-1.1-1.1H7.84z"/>
	<circle cx="22.35" cy="44.18" r="5.96"/>
</g>
</svg>
