<?xml version="1.0" encoding="utf-8"?>
<!-- Generator: Adobe Illustrator 24.1.2, SVG Export Plug-In . SVG Version: 6.00 Build 0)  -->
<svg version="1.1" id="Слой_1" xmlns="http://www.w3.org/2000/svg" xmlns:xlink="http://www.w3.org/1999/xlink" x="0px" y="0px"
	 viewBox="0 0 400 110" style="enable-background:new 0 0 400 110;" xml:space="preserve">
<style type="text/css">
	.st0{fill:#c4c4c4;}
</style>
<g>
	<circle class="st0" cx="198" cy="183" r="170.5"/>
	<path style="opacity:0;" d="M198,13c45.41,0,88.1,17.68,120.21,49.79S368,137.59,368,183s-17.68,88.1-49.79,120.21S243.41,353,198,353
		s-88.1-17.68-120.21-49.79S28,228.41,28,183S45.68,94.9,77.79,62.79S152.59,13,198,13 M198,12C103.56,12,27,88.56,27,183
		s76.56,171,171,171s171-76.56,171-171S292.44,12,198,12L198,12z"/>
</g>
</svg>
